# xmcd
#
# Track frame offsets:
# 150
# 18126
# 34232
# 43207
# 46224
# 56093
# 62997
# 77363
# 89314
# 103387
# 118806
# 136525
# 145620
# 154242
# 165628
# 193263
#
# Disc length: 3162 seconds
#
# Revision: 1
# Processed by: cddbd v1.5.2PL0 Copyright (c) Steve Scherf et al.
# Submitted via: CedeCatalogueitor 2.6.0.6 http://personales.ya.com/cdcatalogueitor
#
DISCID=d90c5810
DTITLE=Nice Man and The Bad Boys - The Art Of Hanging Out
DYEAR=1900
DGENRE=
TTITLE0=Forever Is A Long Time Without You
TTITLE1=Lines
TTITLE2=Hey Slinky
TTITLE3=1 Minute Of Your Time
TTITLE4=Punk Rock Girl
TTITLE5=Rain Rain Rain
TTITLE6=Cayo
TTITLE7=Love Is A Game For Two To Play
TTITLE8=Bambino
TTITLE9=Mine Mine Mine
TTITLE10=Tambourine
TTITLE11=Pretty Brown Eyes
TTITLE12=Lazybones
TTITLE13=Cheeky Love
TTITLE14=Nice Man Rip
TTITLE15=
EXTD=
EXTT0=
EXTT1=
EXTT2=
EXTT3=
EXTT4=
EXTT5=
EXTT6=
EXTT7=
EXTT8=
EXTT9=
EXTT10=
EXTT11=
EXTT12=
EXTT13=
EXTT14=
EXTT15=
PLAYORDER=
